<svg width="600" height="552" viewBox="0 0 600 552" fill="none" xmlns="http://www.w3.org/2000/svg">
<path d="M244.839 0.144076C206.292 2.52707 169.958 10.442 142.898 22.5272C140.601 23.4634 138.388 24.3144 137.963 24.3144C137.452 24.3144 135.665 25.0804 133.964 26.0166C132.262 26.8676 126.22 29.8464 120.604 32.6549C109.372 38.1018 95.7572 45.9316 89.6305 50.3571C87.5032 51.9742 84.0145 54.4423 81.8872 55.9742C68.1873 65.8466 51.5944 81.5063 42.4044 93.251C39.256 97.2511 36.1927 101.166 35.5119 102.017C34.8312 102.783 34.2356 103.634 34.2356 103.889C34.2356 104.145 32.8741 106.187 31.2573 108.485C29.6406 110.698 28.2791 112.996 28.2791 113.592C28.2791 114.102 27.9387 114.528 27.5984 114.528C27.258 114.528 26.322 115.804 25.5562 117.251C24.7903 118.783 22.4928 123.464 20.2804 127.719C18.1531 131.89 16.3662 136.06 16.3662 136.826C16.3662 137.677 16.0258 138.358 15.5153 138.358C15.0898 138.358 14.324 139.975 13.7284 141.932C13.2178 143.975 12.452 146.017 12.1116 146.443C11.6861 146.953 10.4098 150.954 9.30356 155.379C8.11227 159.805 6.7508 164.571 6.32534 166.017C4.79368 170.443 1.13472 187.89 0.539071 193.677C-0.482035 203.124 0.0285178 231.805 1.38999 240.486C3.60239 254.273 5.21914 262.869 6.58061 267.72C8.45264 274.359 10.4098 280.656 11.2607 282.614C11.6861 283.55 12.6222 286.188 13.4731 288.571C17.0469 299.21 24.9605 315.04 33.9803 329.848C42.3193 343.55 43 344.572 49.8925 353.678C64.1029 372.402 92.1833 399.636 109.968 412.147C112.52 413.934 118.732 418.615 119.328 419.21C119.583 419.466 120.349 419.976 121.115 420.487C121.88 420.913 125.71 423.551 129.794 426.189C133.793 428.828 139.069 432.147 141.622 433.508C144.089 434.87 148.259 437.253 150.812 438.7C157.704 442.615 166.128 446.7 169.532 447.721C172.425 448.657 172.51 448.828 172.255 452.402C172.085 454.615 171.234 457.253 170.128 458.785C169.107 460.147 167.66 462.445 166.979 463.892C166.299 465.253 165.192 466.955 164.682 467.551C164.086 468.147 163.576 469.083 163.576 469.509C163.576 470.36 149.961 490.956 143.919 499.211C131.07 516.913 108.521 539.552 97.9696 545.339C90.3964 549.509 90.992 550.786 101.203 551.552C118.732 552.913 130.985 551.296 150.642 544.998C160.512 541.935 164.171 540.403 178.041 533.849C185.614 530.19 214.376 513.083 217.864 510.105C219.396 508.828 221.013 507.722 221.353 507.722C221.779 507.722 223.651 506.445 225.608 504.998C227.48 503.466 231.564 500.232 234.713 497.934C237.776 495.551 243.392 491.296 247.051 488.317C250.71 485.424 254.284 483.041 254.965 483.041C255.645 483.041 256.922 482.36 257.773 481.424C259.815 479.296 263.729 478.53 267.388 479.636C269.005 480.147 273.089 480.913 276.323 481.424C279.641 481.849 284.747 482.615 287.81 483.126C295.043 484.232 297.085 484.487 316.486 485.679C335.717 486.956 355.884 486.019 381.411 482.615C403.28 479.721 408.896 478.615 427.616 473.764C441.061 470.275 466.929 460.743 471.184 457.849C472.12 457.168 473.311 456.657 473.907 456.657C474.502 456.657 476.885 455.551 479.097 454.104C481.395 452.743 483.692 451.551 484.203 451.551C485.819 451.551 508.624 437.253 514.155 432.742C515.346 431.806 519.516 428.487 523.515 425.338C527.43 422.274 531.344 419.125 532.11 418.359C550.404 401.168 562.488 387.551 568.019 377.849C569.55 375.125 571.848 371.21 573.124 369.253C574.4 367.21 575.422 365.253 575.422 364.827C575.422 364.402 575.677 363.891 576.102 363.721C577.208 363.21 588.185 340.316 588.185 338.274C588.185 337.593 588.781 336.401 589.377 335.635C590.398 334.189 596.439 310.444 598.396 299.635C598.992 296.827 599.588 286.444 599.843 276.656C600.183 262.614 600.013 256.316 598.907 247.72C595.844 224.231 589.462 202.443 579.506 181.166C577.719 177.252 576.272 173.932 576.272 173.762C576.272 173.507 572.188 166.528 567.168 158.188C559.254 144.996 555.255 138.868 552.021 135.294C551.596 134.783 550.234 133.081 549.043 131.549C547.852 130.017 545.299 126.953 543.427 124.826C541.47 122.698 538.066 118.613 535.769 115.804C531.684 110.698 517.644 96.4851 512.879 92.4C511.432 91.2085 507.858 88.1446 504.795 85.4212C501.732 82.7829 495.095 77.5914 489.904 73.7615C484.798 70.0168 479.012 65.7615 477.055 64.3147C475.098 62.953 473.141 61.7615 472.63 61.7615C472.12 61.7615 471.609 61.5062 471.439 61.0806C471.099 60.3147 457.654 51.5486 456.803 51.5486C456.463 51.5486 455.016 50.7827 453.74 49.8465C452.378 48.9103 446.932 45.8465 441.486 43.038C436.041 40.2294 431.02 37.5911 430.169 37.1656C427.361 35.6337 417.576 31.3783 415.448 30.6975C414.257 30.357 412.555 29.506 411.619 28.9102C410.683 28.2294 409.407 27.7187 408.641 27.7187C407.96 27.7187 405.918 26.9527 404.131 26.0166C402.429 25.0804 400.557 24.3144 400.047 24.3144C399.621 24.3144 397.579 23.6336 395.622 22.6974C393.665 21.8463 389.921 20.6548 387.368 20.0591C384.815 19.4633 381.922 18.4421 380.986 17.8463C378.603 16.3995 342.865 7.29306 339.291 7.29306C337.759 7.29306 335.377 6.86752 334.015 6.35688C332.739 5.84624 329.165 5.16538 326.102 4.73985C304.573 2.01643 298.617 1.33557 293.767 0.910038C286.534 0.31429 251.391 -0.281459 244.839 0.144076ZM284.406 3.46324C291.639 3.80367 300.063 4.31431 303.127 4.73985C306.19 5.16538 313.253 6.10156 318.869 6.78241C324.485 7.54838 330.952 8.65477 333.249 9.42073C335.547 10.1016 338.78 10.6973 340.312 10.6973C343.886 10.6973 376.051 18.9527 378.433 20.3995C379.369 20.9953 382.262 22.0165 384.815 22.6123C387.368 23.208 391.112 24.3995 393.069 25.2506C395.026 26.1868 397.068 26.8676 397.494 26.8676C398.004 26.8676 399.876 27.6336 401.578 28.5698C403.365 29.506 405.407 30.2719 406.088 30.2719C406.854 30.2719 408.13 30.7826 409.066 31.4634C410.002 32.0592 411.704 32.9102 412.896 33.2507C415.023 33.9315 424.808 38.1869 427.616 39.7188C428.467 40.1443 433.488 42.7826 438.934 45.5912C444.38 48.3997 449.826 51.4635 451.187 52.3997C452.463 53.3359 453.91 54.1019 454.25 54.1019C455.101 54.1019 468.546 62.8679 468.886 63.6338C469.056 64.0594 469.567 64.3147 470.077 64.3147C470.588 64.3147 472.545 65.5062 474.502 66.8679C476.459 68.3147 482.246 72.57 487.351 76.3148C492.542 80.1446 499.179 85.3361 502.242 87.9744C505.306 90.6978 508.879 93.7617 510.326 94.9532C515.091 99.0383 529.131 113.251 533.216 118.358C535.513 121.166 538.917 125.251 540.874 127.379C542.746 129.507 545.299 132.57 546.49 134.102C547.681 135.634 549.043 137.336 549.468 137.847C552.702 141.422 556.701 147.549 564.615 160.741C569.635 169.081 573.72 176.06 573.72 176.315C573.72 176.571 575.166 179.89 577.038 183.72C584.016 198.613 589.632 218.273 592.525 237.933C594.057 248.571 594.227 252.741 593.887 268.146C593.376 287.891 592.27 296.061 587.93 312.912C573.975 366.87 533.897 413.764 477.48 442.445C465.227 448.657 462.504 449.849 452.634 453.849C398.09 475.551 330.952 481.849 271.558 470.7C259.645 468.487 255.986 468.572 252.071 470.955C250.199 472.147 237.776 481.849 236.755 483.041C235.393 484.573 218.29 496.828 208.589 503.296C185.444 518.786 161.874 530.53 142.217 536.488C134.9 538.701 120.179 541.594 113.967 542.02L108.946 542.36L117.371 534.445C125.795 526.615 140.09 510.53 146.472 501.764C152.514 493.509 166.128 472.913 166.128 472.062C166.128 471.636 166.639 470.7 167.235 470.104C167.745 469.509 168.851 467.806 169.532 466.445C170.213 464.998 171.659 462.7 172.68 461.253C174.978 458.189 175.999 450.445 174.893 445.168C174.212 441.934 173.787 441.594 166.299 437.764C154.386 431.721 143.834 426.019 141.281 424.232C140.09 423.296 138.814 422.615 138.473 422.615C137.452 422.615 119.243 410.274 109.542 403.04C68.783 372.657 35.0865 331.125 18.1531 290.699C13.3029 279.039 13.3029 279.039 11.7712 274.103C8.11227 262.273 6.41043 254.273 4.28312 239.635C3.09183 231.294 2.75147 198.869 3.77257 192.826C5.6446 181.847 13.388 150.528 14.6644 148.996C15.0047 148.571 15.7706 146.528 16.2811 144.485C16.8768 142.528 17.6426 140.911 18.0681 140.911C18.5786 140.911 18.919 140.23 18.919 139.379C18.919 138.613 20.7059 134.443 22.8332 130.273C25.0456 126.017 27.3431 121.336 28.1089 119.804C28.8748 118.358 29.8108 117.081 30.1511 117.081C30.4915 117.081 30.8319 116.655 30.8319 116.145C30.8319 115.549 32.1933 113.251 33.8101 111.038C35.4268 108.74 36.7883 106.698 36.7883 106.443C36.7883 106.187 37.384 105.336 38.0647 104.57C38.7454 103.719 41.8088 99.8043 44.9572 95.8042C54.1471 84.0595 70.7401 68.3998 84.4399 58.5274C86.5672 56.9955 90.056 54.5274 92.1833 52.9104C98.3099 48.4848 111.925 40.655 123.157 35.2081C128.773 32.3996 134.814 29.4209 136.516 28.5698C138.218 27.6336 140.005 26.8676 140.516 26.8676C140.941 26.8676 143.153 26.0166 145.451 25.0804C156.002 20.3144 169.617 15.8889 186.55 11.5484C190.55 10.5271 195.145 9.42073 196.762 8.99519C199.57 8.22923 210.802 6.52709 224.842 4.65474C233.692 3.46324 254.369 2.44196 263.559 2.69728C267.813 2.8675 277.174 3.20792 284.406 3.46324Z" fill="#DBDBDB"/>
<path d="M243.22 2.0477C243.05 2.21791 239.476 2.55834 235.221 2.89877C219.054 3.92005 202.121 6.47326 188.846 9.96264C186.293 10.6435 182.634 11.5797 180.677 11.9201C177.274 12.6861 155.235 19.835 148.002 22.5585C143.237 24.3457 135.664 27.8351 124.602 33.2819C119.922 35.5798 115.837 37.4522 115.497 37.4522C114.646 37.4522 94.8193 49.7076 89.2884 53.7076C86.7356 55.4948 83.6723 57.7076 82.481 58.4736C72.0997 65.6226 53.5497 83.0695 45.2957 93.5376C39.5945 100.687 31.5108 112.431 28.5326 117.878C27.1711 120.176 25.6394 122.729 24.9587 123.495C24.278 124.176 23.7674 125.453 23.7674 126.134C23.7674 126.9 23.1718 127.921 22.491 128.517C21.8103 129.112 21.2146 130.048 21.2146 130.644C21.2146 131.325 20.7041 132.857 20.0234 134.219C17.0451 140.091 15.2582 144.517 15.2582 145.793C15.2582 146.474 14.9178 147.24 14.4073 147.41C13.9818 147.495 12.6203 151.495 11.429 156.176C10.2378 160.857 8.87628 165.368 8.45082 166.134C7.94027 166.985 7.5999 168.432 7.5999 169.453C7.5999 170.389 6.66389 174.9 5.4726 179.41C4.3664 184.006 3.43039 188.432 3.43039 189.368C3.51548 190.304 3.09002 194.134 2.66456 197.879C0.537253 215.07 3.09002 244.262 8.36573 264.688C10.2378 271.837 13.0458 280.517 13.6414 281.283C14.0669 281.709 14.4073 282.645 14.4073 283.411C14.4073 285.454 24.5332 306.73 30.4897 317.028C49.21 349.369 76.8649 380.093 109.285 404.263C118.986 411.497 137.195 423.837 138.216 423.837C138.557 423.837 139.833 424.518 141.024 425.455C143.577 427.242 154.299 433.029 166.041 438.987C173.53 442.816 173.955 443.157 174.21 445.965C174.891 453.37 174.551 456.093 172.594 459.327C168.85 465.285 168.424 465.965 167.913 467.412C167.658 468.263 167.063 468.944 166.637 468.944C166.212 468.944 165.871 469.54 165.871 470.221C165.871 470.902 164.51 473.37 162.893 475.668C161.276 477.88 159.915 480.178 159.915 480.774C159.915 481.285 159.574 481.71 159.064 481.71C158.638 481.71 158.213 482.051 158.213 482.561C158.213 484.178 143.492 504.264 134.898 514.476C132.515 517.285 125.538 524.604 119.326 530.732C113.114 536.859 108.009 542.306 108.009 542.902C108.009 544.945 130.813 541.625 143.662 537.711C163.319 531.753 186.889 520.008 210.034 504.519C219.735 498.051 236.838 485.795 238.2 484.263C238.625 483.838 250.963 473.88 253.261 472.093C256.069 469.965 260.749 469.965 271.3 471.923C330.439 483.242 399.449 476.859 454.078 455.072C463.949 451.072 466.672 449.88 478.925 443.667C527.938 418.731 565.209 379.412 583.248 333.624C586.907 324.348 591.757 306.305 593.544 294.986C594.31 290.73 595.076 278.9 595.331 268.517C595.672 252.262 595.501 248.177 593.97 237.453C591.077 217.964 586.482 201.538 578.908 184.091C575.505 176.262 559.422 147.581 556.359 144.006C555.678 143.24 553.636 140.432 551.764 137.878C548.19 132.942 546.999 131.495 543.851 127.836C542.744 126.559 539.511 122.644 536.618 119.155C529.555 110.559 518.919 100.006 507.091 89.7929C501.73 85.112 496.965 81.0269 496.454 80.6865C496.029 80.346 494.412 79.0694 492.965 77.8779C491.434 76.6864 489.987 75.7503 489.732 75.7503C489.392 75.7503 487.945 74.6439 486.498 73.2822C484.967 71.8354 482.839 70.2183 481.648 69.6226C480.372 69.0268 479.266 68.346 479.01 68.0907C477.564 66.5587 472.203 62.9842 471.437 62.9842C470.927 62.9842 470.501 62.5587 470.501 62.1332C470.501 61.6225 470.076 61.2821 469.565 61.2821C468.969 61.2821 466.672 59.9204 464.46 58.3034C462.162 56.6863 459.865 55.3246 459.439 55.3246C458.929 55.3246 458.588 54.8991 458.588 54.4736C458.588 53.9629 457.993 53.6225 457.227 53.6225C456.546 53.6225 454.674 52.7714 453.227 51.665C451.696 50.5586 448.973 48.9416 447.101 48.0054C445.229 47.1544 443.612 46.1331 443.442 45.7075C443.272 45.3671 442.421 45.1118 441.57 45.1118C440.804 45.1118 439.613 44.516 439.017 43.8352C438.421 43.1543 437.23 42.5586 436.379 42.5586C435.528 42.5586 434.677 42.2182 434.337 41.7926C433.912 41.0267 427.7 37.9628 417.744 33.4521C416.127 32.6862 413.83 31.5798 412.638 31.0692C411.447 30.4734 409.235 29.7074 407.618 29.367C406.001 29.0266 404.129 28.2606 403.619 27.6649C403.023 27.0691 401.066 26.3032 399.279 25.9627C397.492 25.6223 395.875 25.0266 395.62 24.6861C395.365 24.2606 391.876 23.0691 387.962 22.0478C383.962 21.0265 380.559 19.835 380.303 19.4946C379.623 18.5584 343.884 9.36689 340.821 9.36689C339.544 9.36689 336.056 8.77114 333.162 8.00518C330.354 7.23922 326.44 6.47326 324.568 6.38815C322.696 6.21794 318.101 5.7073 314.357 5.11155C304.486 3.74984 300.572 3.3243 294.36 2.89877C287.468 2.30302 243.645 1.62216 243.22 2.0477ZM517.727 150.644C527.768 151.836 533.384 153.538 540.957 157.538C556.274 165.708 566.4 178.389 572.441 197.113C578.398 215.411 578.823 239.666 573.803 268.092C562.571 331.411 520.791 369.795 469.905 363.497C441.485 360.007 423.36 343.411 413.745 311.922L412.213 306.816L411.362 359.582L386.09 359.837L360.732 360.007V333.879C360.732 309.028 361.328 289.964 363.285 256.177C363.71 248.007 364.306 235.496 364.561 228.517L365.072 215.751L362.434 223.411C360.988 227.581 359.626 231.666 359.286 232.347C358.35 234.815 348.734 262.56 347.543 266.39C346.522 269.709 337.077 296.943 335.8 300.432C335.545 301.113 333.418 307.411 331.035 314.475C325.674 330.56 318.527 351.667 316.825 356.348L315.463 360.007H281.767L280.49 356.348C279.725 354.39 278.703 351.412 278.193 349.794C277.597 348.177 274.108 337.965 270.449 327.241C266.705 316.433 262.366 303.837 260.749 299.156C259.217 294.475 254.878 281.794 251.134 271.071C247.475 260.262 242.454 245.539 239.987 238.304C237.519 231.07 235.221 224.347 234.796 223.411C234.37 222.475 233.69 220.517 233.179 219.155C232.158 216.347 232.413 231.496 233.945 260.858C236.157 303.581 236.498 313.624 236.498 336.007V360.007L211.225 359.837L185.868 359.582L185.017 174.9H119.496L119.071 360.007H91.8411V268.603C91.8411 218.304 91.5858 176.602 91.3306 175.836C90.9051 174.644 87.076 174.474 57.7192 174.474H24.6183V151.495L252.155 151.921L254.878 160.006C256.409 164.432 260.919 178.389 265.004 191.07C269.088 203.666 273.683 217.879 275.215 222.56C276.746 227.241 279.81 236.773 282.022 243.836C284.234 250.815 286.362 257.368 286.702 258.305C287.042 259.241 289.17 265.709 291.382 272.773C296.828 290.049 298.104 293.624 298.7 293.624C298.955 293.624 300.062 290.815 301.168 287.411C302.189 284.092 304.912 275.752 307.124 268.943C309.337 262.134 313.166 250.305 315.633 242.56C318.101 234.815 321.164 225.283 322.441 221.283C323.802 217.283 327.376 205.964 330.525 196.177C333.673 186.304 338.183 172.347 340.651 165.113L344.99 151.921H411.362L411.788 202.56C412.043 230.39 412.468 252.602 412.809 251.922C413.149 251.241 413.83 247.922 414.34 244.687C417.829 223.241 428.295 199.325 441.314 183.24C447.271 175.921 448.292 174.815 454.759 169.453C467.523 158.9 479.861 153.368 495.603 151.07C505.389 149.708 508.367 149.623 517.727 150.644Z" fill="white"/>
<path d="M500.709 174.134C491.774 175.921 489.051 176.687 485.222 178.389C467.778 186.049 454.163 202.9 446.25 226.645C438.166 250.986 435.018 286.816 439.442 305.539C442.761 319.752 450.675 331.156 460.545 336.007C468.119 339.752 473.479 340.688 484.456 340.263C491.689 339.922 495.263 339.326 499.603 337.709C521.131 329.709 536.022 310.22 544.021 280.007C548.19 264.177 550.062 248.858 550.062 230.219C550.062 214.9 549.807 212.517 548.02 206.39C542.829 188.517 533.554 178.815 518.068 174.985C512.962 173.708 504.878 173.368 500.709 174.134Z" fill="white"/>
<path fill-rule="evenodd" clip-rule="evenodd" d="M517.727 150.644C527.768 151.836 533.384 153.538 540.957 157.538C556.274 165.708 566.4 178.389 572.441 197.113C578.398 215.411 578.823 239.666 573.803 268.092C562.571 331.411 520.791 369.795 469.905 363.497C441.485 360.007 423.36 343.411 413.745 311.922L412.213 306.816L411.362 359.582L386.09 359.837L360.732 360.007V333.879C360.732 309.028 361.328 289.964 363.285 256.177C363.71 248.007 364.306 235.496 364.561 228.517L365.072 215.751L362.434 223.411C360.988 227.581 359.626 231.666 359.286 232.347C358.35 234.815 348.734 262.56 347.543 266.39C346.522 269.709 337.077 296.943 335.8 300.432C335.545 301.113 333.418 307.411 331.035 314.475C325.674 330.56 318.527 351.667 316.825 356.348L315.463 360.007H281.767L280.49 356.348C279.725 354.39 278.703 351.412 278.193 349.794C277.597 348.177 274.108 337.965 270.449 327.241C266.705 316.433 262.366 303.837 260.749 299.156C259.217 294.475 254.878 281.794 251.134 271.071C247.475 260.262 242.454 245.539 239.987 238.304C237.519 231.07 235.221 224.347 234.796 223.411C234.37 222.475 233.69 220.517 233.179 219.155C232.158 216.347 232.413 231.496 233.945 260.858C236.157 303.581 236.498 313.624 236.498 336.007V360.007L211.225 359.837L185.868 359.582L185.017 174.9H119.496L119.071 360.007H91.8411V268.603C91.8411 218.304 91.5858 176.602 91.3306 175.836C90.9051 174.644 87.076 174.474 57.7192 174.474H24.6183V151.495L252.155 151.921L254.878 160.006C256.409 164.432 260.919 178.389 265.004 191.07C269.088 203.666 273.683 217.879 275.215 222.56C276.746 227.241 279.81 236.773 282.022 243.836C284.234 250.815 286.362 257.368 286.702 258.305C287.042 259.241 289.17 265.709 291.382 272.773C296.828 290.049 298.104 293.624 298.7 293.624C298.955 293.624 300.062 290.815 301.168 287.411C302.189 284.092 304.912 275.752 307.124 268.943C309.337 262.134 313.166 250.305 315.633 242.56C318.101 234.815 321.164 225.283 322.441 221.283C323.802 217.283 327.376 205.964 330.525 196.177C333.673 186.304 338.183 172.347 340.651 165.113L344.99 151.921H411.362L411.788 202.56C412.043 230.39 412.468 252.602 412.809 251.922C413.149 251.241 413.83 247.922 414.34 244.687C417.829 223.241 428.295 199.325 441.314 183.24C447.271 175.921 448.292 174.815 454.759 169.453C467.523 158.9 479.861 153.368 495.603 151.07C505.389 149.708 508.367 149.623 517.727 150.644ZM485.222 178.389C489.051 176.687 491.774 175.921 500.709 174.134C504.878 173.368 512.962 173.708 518.068 174.985C533.554 178.815 542.829 188.517 548.02 206.39C549.807 212.517 550.062 214.9 550.062 230.219C550.062 248.858 548.19 264.177 544.021 280.007C536.022 310.22 521.131 329.709 499.603 337.709C495.263 339.326 491.689 339.922 484.456 340.263C473.479 340.688 468.119 339.752 460.545 336.007C450.675 331.156 442.761 319.752 439.442 305.539C435.018 286.816 438.166 250.986 446.25 226.645C454.163 202.9 467.778 186.049 485.222 178.389Z" fill="#2957BA"/>
</svg>
